<?xml version="1.0" encoding="UTF-8" standalone="no"?>
<!-- Created with Inkscape (http://www.inkscape.org/) -->

<svg
   width="32mm"
   height="32mm"
   viewBox="0 0 32 32"
   version="1.1"
   id="svg1"
   xmlns:inkscape="http://www.inkscape.org/namespaces/inkscape"
   xmlns:sodipodi="http://sodipodi.sourceforge.net/DTD/sodipodi-0.dtd"
   xmlns="http://www.w3.org/2000/svg"
   xmlns:svg="http://www.w3.org/2000/svg">
  <sodipodi:namedview
     id="namedview1"
     pagecolor="#ffffff"
     bordercolor="#000000"
     borderopacity="0.25"
     inkscape:showpageshadow="2"
     inkscape:pageopacity="0.0"
     inkscape:pagecheckerboard="0"
     inkscape:deskcolor="#d1d1d1"
     inkscape:document-units="mm"
     inkscape:export-bgcolor="#ffffffff" />
  <defs
     id="defs1" />
  <g
     inkscape:label="Ebene 1"
     inkscape:groupmode="layer"
     id="layer1">
    <path
       style="fill:#000000;fill-opacity:0;stroke-width:9.45301;stroke-linejoin:bevel;stroke-dasharray:18.906, 9.45301, 4.72649, 9.45301;stroke-dashoffset:2194.04;paint-order:markers fill stroke"
       id="path1"
       d="m 11.98832,31.686002 c 0.09101,-1.391814 0.785998,-2.668021 1.473813,-3.8505 0.742619,-1.276699 1.561386,-2.479581 2.373605,-3.712712 1.126558,-1.639083 2.403685,-3.158026 3.718625,-4.645687 0,0 -3.149118,-1.894911 -3.149118,-1.894911 v 0 c -1.261083,1.542998 -2.491917,3.109313 -3.635552,4.742715 -1.621413,2.371406 -3.6062028,4.721793 -4.3004486,7.568038 z" />
    <path
       style="fill:#000000;fill-opacity:0;stroke-width:9.45301;stroke-linejoin:bevel;stroke-dasharray:18.906, 9.45301, 4.72649, 9.45301;stroke-dashoffset:2194.04;paint-order:markers fill stroke"
       id="path2"
       d="m 6.1142482,11.645323 c 7.4296268,2.04907 14.9315138,3.818509 22.3968418,5.72908 1.479454,0.402069 3.798985,0.970134 5.314092,1.575962 0.421275,0.16845 1.614461,0.828648 1.206823,0.629452 -3.029635,-1.480455 -2.380178,-2.419512 -3.066844,-1.234933 0,0 3.392213,1.939237 3.392213,1.939237 v 0 C 35.460146,20.078412 35.833761,19.82393 35.665687,19.666995 32.688334,16.886984 29.722593,16.312739 25.951146,15.416983 18.274814,13.546972 10.554308,11.769309 3.058795,9.2492189 Z" />
    <path
       style="fill:#e43232;fill-opacity:0;stroke-width:9.45301;stroke-linejoin:bevel;stroke-dasharray:18.906, 9.45301, 4.72649, 9.45301;stroke-dashoffset:2194.04;paint-order:markers fill stroke"
       id="path3"
       d="M 8.0484744,2.3874054 C 7.7000906,5.5142688 7.1480547,8.6578608 7.2887858,11.816628 c 0.037156,0.833985 0.1586756,1.662068 0.2380136,2.493103 0.4155963,2.214033 1.0192758,4.445457 2.3505741,6.30744 0.3317065,0.463932 0.6576495,0.980078 1.1513455,1.265604 1.523879,0.881327 3.109531,1.724199 4.809407,2.181762 0.595935,0.160411 1.20505,-0.267093 1.807575,-0.400639 0.562729,-0.303517 1.172393,-0.532737 1.688188,-0.91055 2.227121,-1.631336 3.13715,-4.279483 3.456326,-6.912736 0.06582,-0.542998 0.0656,-1.091978 0.09839,-1.637967 -0.09367,-0.831717 -0.08896,-1.732447 -0.54673,-2.482751 C 21.51123,10.35843 17.341142,9.1299235 17.167723,9.0884448 16.463614,8.9200357 14.491367,10.361577 14.10953,10.606548 c -1.379477,1.237007 -1.875434,1.536041 -2.943436,3.095192 -0.413329,0.60341 -0.856648,1.212241 -1.085356,1.906962 -0.5068723,1.539668 -0.4503792,3.526261 -0.02213,5.067222 0.230951,0.831016 0.690509,1.580792 1.035764,2.371188 0.582732,0.666012 1.07764,1.42054 1.748198,1.998036 0.655576,0.564594 1.416391,1.005655 2.189804,1.393443 3.231597,1.620318 4.59711,2.811588 7.779776,2.486728 1.958367,-0.199893 2.15734,-0.579742 3.724023,-1.589913 0.964589,-1.300011 1.65363,-1.837922 1.741051,-3.586293 0.113451,-2.268943 -1.15902,-5.23838 -2.491574,-7.020688 -0.468418,-0.626517 -1.062595,-1.148324 -1.593893,-1.722487 -2.609786,-1.604332 -5.415211,-4.164531 -8.679661,-3.613355 -0.57396,0.09691 -1.16339,0.277302 -1.630947,0.624017 -1.516508,1.124559 -1.446846,2.187436 -1.916493,3.924071 -0.07868,0.878519 -0.157354,1.757038 -0.23603,2.635558 0,0 3.102368,1.616725 3.102368,1.616725 v 0 c 0.0805,-0.853131 0.160996,-1.706261 0.241494,-2.559391 0.218349,-0.738337 0.299083,-1.53229 0.655047,-2.215011 0.587168,-1.12616 1.504898,-1.708444 2.731649,-1.86869 0.58266,-0.07611 1.473788,0.606143 1.760367,0.09315 0.265713,-0.475638 -1.726241,-1.127311 -1.18142,-1.129494 0.729847,-0.0029 1.251613,0.751137 1.87742,1.126705 0.547863,0.554792 1.157937,1.054385 1.64359,1.664377 1.34341,1.687354 2.639489,4.507831 2.545518,6.71728 -0.07015,1.649403 -0.70975,2.130911 -1.622555,3.34919 -1.472763,0.927333 -1.69546,1.304228 -3.535855,1.454638 -0.759952,0.06211 -1.61111,-0.475674 -2.284421,-0.11785 -0.347342,0.184591 1.022967,1.068286 0.636805,0.99346 -1.64731,-0.319202 -2.984117,-2.101399 -4.012868,-3.196105 -0.954201,-2.016331 -1.435077,-2.460417 -1.445203,-4.75938 -0.01438,-3.265598 1.987083,-5.239433 4.331524,-7.159938 0.523066,-0.299225 1.012503,-0.666973 1.569199,-0.897676 0.462536,-0.191682 1.606041,0.121354 1.458946,-0.357233 -0.2667,-0.867725 -1.436043,-1.114748 -2.101231,-1.7324865 -0.237858,-0.2208903 0.607798,0.2845612 0.812959,0.5361115 0.517965,0.635083 0.572499,1.640269 0.698896,2.38106 -0.01153,0.540191 0.01519,1.082557 -0.03459,1.620573 -0.234091,2.529878 -1.104888,5.109927 -3.28574,6.621068 -0.501691,0.347628 -1.093176,0.543249 -1.639765,0.814874 -2.324903,0.359326 -2.279547,-0.120134 -0.234864,1.720978 0.428944,0.386236 -0.878629,-0.75943 -1.236336,-1.212438 -1.414472,-1.791323 -2.063932,-4.003962 -2.499026,-6.201852 -0.07852,-0.816519 -0.201067,-1.629997 -0.23557,-2.449557 -0.129595,-3.07833 0.381786,-6.1953177 1.0587,-9.1851475 z" />
    <path
       style="fill:#e43232;fill-opacity:0;stroke-width:9.45301;stroke-linejoin:bevel;stroke-dasharray:18.906, 9.45301, 4.72649, 9.45301;stroke-dashoffset:2194.04;paint-order:markers fill stroke"
       id="path4"
       d="m 8.7343024,13.024139 c -1.1464073,0.923126 -2.1269947,2.179931 -2.0056837,3.752253 0.037028,0.479928 0.2348664,0.933619 0.3522993,1.400429 1.2711263,1.625197 0.9672026,1.570305 3.025434,2.599013 1.79796,0.898625 3.593051,1.825188 5.48272,2.510268 1.035275,0.375329 3.632088,0.486671 4.762857,0.413968 0.641746,-0.04126 1.270934,-0.197205 1.906402,-0.295807 0.491398,-0.251294 1.048051,-0.403135 1.474193,-0.753882 1.558324,-1.282618 1.120337,-3.256403 0.21798,-4.771168 -0.856377,-1.437578 -1.933906,-2.289228 -3.131791,-3.410225 -2.120476,-1.507071 -4.669742,-4.189066 -7.365156,-3.949662 -0.309105,0.02745 -0.589178,0.195107 -0.883767,0.29266 0,0 3.167402,2.163702 3.167402,2.163702 v 0 c 0.25046,-0.06518 0.492633,-0.190133 0.751379,-0.195545 0.347679,-0.0073 1.234111,0.440679 1.031192,0.158265 -0.03558,-0.04952 -4.551261,-2.890814 0.0044,0.18288 0.566572,0.507542 1.171128,0.975635 1.699715,1.522624 1.33694,1.38348 3.569256,4.203891 1.421312,5.978264 -0.392401,0.324155 -0.908187,0.459802 -1.36228,0.689702 -1.771766,0.276355 -2.111256,0.435036 -3.998457,0.248054 -0.830535,-0.08229 -1.662009,-0.643264 -2.467509,-0.424789 -0.35917,0.09742 0.996957,0.958565 0.626405,0.92415 -1.30912,-0.121585 -2.223235,-1.419487 -2.989944,-2.277843 -0.129017,-0.418909 -0.339269,-0.821014 -0.38705,-1.256728 -0.1652929,-1.507292 0.909314,-2.648907 2.03795,-3.435442 z" />
    <path
       style="fill:#e43232;fill-opacity:0;stroke-width:9.45301;stroke-linejoin:bevel;stroke-dasharray:18.906, 9.45301, 4.72649, 9.45301;stroke-dashoffset:2194.04;paint-order:markers fill stroke"
       id="path5"
       d="m 7.5751112,18.140065 c -0.066586,-3.093832 3.3548898,-5.092543 5.6067208,-6.520817 0.611324,-0.328217 1.222649,-0.656433 1.833973,-0.984649 0,0 -3.014392,-1.9667843 -3.014392,-1.9667843 v 0 C 11.395121,9.0081525 10.78883,9.3484903 10.182539,9.6888278 7.6709351,11.27587 4.4570448,13.151028 4.0275298,16.405671 Z" />
    <circle
       id="path6"
       style="fill:#e43232;stroke:#000000;stroke-width:0.264583"
       cx="17.535055"
       cy="21.553505"
       r="1.7384977" />
    <circle
       id="path7"
       style="fill:#e43232;stroke:#000000;stroke-width:0.264583"
       cx="4.3837638"
       cy="13.881919"
       r="1.7384977" />
    <path
       style="fill:#e43232;fill-opacity:0;stroke-width:9.45301;stroke-linejoin:bevel;stroke-dasharray:18.906, 9.45301, 4.72649, 9.45301;stroke-dashoffset:2194.04;paint-order:markers fill stroke"
       id="path8"
       d="m 7.4897275,18.92167 c 1.189713,2.600226 2.4086833,5.182213 3.8257865,7.666917 0.943575,1.463485 1.633651,3.235688 3.036459,4.343511 1.217543,0.638522 2.435086,1.277046 3.652629,1.915571 0,0 -3.172364,-2.361068 -3.172364,-2.361068 v 0 c 1.061153,0.620458 2.122306,1.240917 3.183459,1.861378 C 16.462573,31.632977 15.609559,29.412485 14.688074,28.089891 13.278331,25.68472 12.0778,23.17575 11.038142,20.588137 Z" />
    <path
       style="fill:#e43232;fill-opacity:0;stroke-width:9.45301;stroke-linejoin:bevel;stroke-dasharray:18.906, 9.45301, 4.72649, 9.45301;stroke-dashoffset:2194.04;paint-order:markers fill stroke"
       id="path9"
       d="M 17.759274,7.5531386 C 14.933538,7.2233075 12.084483,7.137978 9.2425172,7.2123079 8.4095814,7.2895816 4.7553591,7.0316383 5.3710323,8.8665361 c 0.085299,0.2542167 0.3060666,0.4403759 0.4590997,0.660564 2.0963469,1.3868309 1.681675,1.1520129 5.316714,3.0096169 0.05513,0.02817 2.020285,0.760471 2.134266,0.803048 0,0 -2.98675,-2.337309 -2.98675,-2.337309 v 0 C 9.960748,10.878237 9.625591,10.758087 9.293521,10.629799 8.9277713,10.4885 7.9051223,9.9365164 8.2010447,10.193748 8.8528019,10.760291 11.819438,12.332912 9.3877867,11.021992 9.2117687,10.878215 8.6520993,10.571878 8.7218834,10.193805 8.8816155,9.3284168 11.66312,9.4609607 12.231633,9.3715355 c 2.901019,-0.083259 5.808952,0.048292 8.676407,0.5229852 z" />
    <path
       style="fill:#e43232;fill-opacity:0;stroke-width:9.45301;stroke-linejoin:bevel;stroke-dasharray:18.906, 9.45301, 4.72649, 9.45301;stroke-dashoffset:2194.04;paint-order:markers fill stroke"
       d="m 10.95941,9.8634686 c 3.07528,1.1880544 6.320442,0.8311314 9.498154,1.0959414 3.262882,0.271906 0.178376,0.22725 2.191882,0.730627 0.236271,0.05907 0.512797,-0.108916 0.730627,0 0.97417,0.487085 -1.09594,0.365313 0.365314,0.365313"
       id="path10" />
    <path
       style="fill:#e43232;fill-opacity:0;stroke-width:9.45301;stroke-linejoin:bevel;stroke-dasharray:18.906, 9.45301, 4.72649, 9.45301;stroke-dashoffset:2194.04;paint-order:markers fill stroke"
       d="m 27.763837,20.457564 c -3.880761,2.094843 -0.365312,5.060974 -0.365312,8.036902"
       id="path11" />
    <path
       style="fill:#e43232;fill-opacity:0;stroke-width:9.45301;stroke-linejoin:bevel;stroke-dasharray:18.906, 9.45301, 4.72649, 9.45301;stroke-dashoffset:2194.04;paint-order:markers fill stroke"
       d="M 23.745387,18.630996 C 21.492374,14.575572 22.614253,16.386324 20.457564,13.151291 19.23663,11.31989 17.803387,8.573564 16.804428,6.5756456 16.517298,6.0013857 16.14277,4.0874198 15.708487,3.6531364 15.109945,3.0545944 12.222306,4.2794166 12.05535,4.3837637 9.9717308,5.6860259 8.4458277,8.2604553 6.5756456,9.8634686 4.9913423,11.221443 2.3023243,12.862434 2.9225091,15.343173 c 0.131244,0.524975 0.9740437,2.770138 1.095941,2.922509 0.1521399,0.190175 0.5127963,-0.108915 0.7306273,0 0.1089154,0.05446 -0.086105,0.279209 0,0.365314 0.4366053,0.436605 1.5643799,1.304379 2.1918818,1.461255 0.7724786,0.193119 1.7733203,-0.09799 2.5571958,0 1.269769,0.158721 3.047736,0.69932 4.383764,0.365313 0.167068,-0.04177 0.20194,-0.310855 0.365313,-0.365313 0.780814,-0.260272 1.481702,0.344866 2.191882,-0.365314 0.0861,-0.0861 -0.05446,-0.256398 0,-0.365314 0.557023,-1.114046 0.289608,0.668139 0.730628,-1.095941 1.029043,-4.116175 0.365313,-8.9057229 0.365313,-13.151291"
       id="path12" />
    <path
       style="fill:#e43232;fill-opacity:0;stroke-width:9.45301;stroke-linejoin:bevel;stroke-dasharray:18.906, 9.45301, 4.72649, 9.45301;stroke-dashoffset:2194.04;paint-order:markers fill stroke"
       d="M 13.881919,10.594096 C 18.630996,27.033209 -5.4797046,38.357934 4.0184501,23.380073 13.516605,8.4022138 21.188192,8.7675274 22.284133,10.594096 c 1.09594,1.826568 4.383763,14.977859 4.383763,14.977859 l 33.608856,-6.940959"
       id="path13" />
  </g>
</svg>
